PathFileType	4	(X/Y/Z)	/Users/visionmauri/4_2_2_f_1_Sports2D/4_2_2_f_1_Sports2D_m_person00.trc
DataRate	CameraRate	NumFrames	NumMarkers	Units	OrigDataRate	OrigDataStartFrame	OrigNumFrames
30.0	30.0	10	22	m	30.0	40	325
Frame#	Time	Hip			RHip			RKnee			RAnkle			RBigToe			RSmallToe			RHeel			LHip			LKnee			LAnkle			LBigToe			LSmallToe			LHeel			Neck			Head			Nose			RShoulder			RElbow			RWrist			LShoulder			LElbow			LWrist			
		X1	Y1	Z1	X2	Y2	Z2	X3	Y3	Z3	X4	Y4	Z4	X5	Y5	Z5	X6	Y6	Z6	X7	Y7	Z7	X8	Y8	Z8	X9	Y9	Z9	X10	Y10	Z10	X11	Y11	Z11	X12	Y12	Z12	X13	Y13	Z13	X14	Y14	Z14	X15	Y15	Z15	X16	Y16	Z16	X17	Y17	Z17	X18	Y18	Z18	X19	Y19	Z19	X20	Y20	Z20	X21	Y21	Z21	X22	Y22	Z22
40	1.337448559670782	1.1459815180131172	0.9885664336092828	0.0301	1.2540691633179315	0.9700686973374972	0.0301	1.2552630257449966	0.6722235271254305	0.129	1.2074205039476693	0.3070865520899234	0.023	1.1560126644661586	0.1027319728342357	0.2179	1.2276532716707587	0.12843670521309322	0.1804	1.2048343408946844	0.2732715228319621	-0.0119	1.043795481933675	0.9945591223588437	0.0301	0.9903792990414838	0.5732816769692174	0.129	0.9148552151654267	0.13221457360914105	0.023	0.9021457118358115	0.10566760102518773	0.2179	0.8453921315134899	0.09374408904383362	0.1804	0.9014916864343394	0.06196467655709705	-0.0119	1.2603620302621676	1.5244380533227657	0.0008	1.3388477547027027	1.7034909645539447	0.0655	1.3180204074838937	1.5705673796544157	0.1076	1.4065091356206871	1.4535856917994847	-0.01275	1.484133754892692	1.1702530260333994	0.0702	1.5869850068568794	0.910629313086531	0.1076	1.0773425324243044	1.4878044882380939	-0.01275	0.9605473140766492	1.20181790754501	0.0702	0.9715549574253052	1.0090800767780714	0.1076
41	1.3708847736625516	1.1435785011529085	0.9895928403937067	0.0301	1.2526831158724494	0.9701423931109777	0.0301	1.2548297282759047	0.6688915927277302	0.129	1.2132995884326776	0.3378211083472707	0.023	1.164359007069267	0.14702369522580458	0.2179	1.234788176895999	0.16810492818641376	0.1804	1.2030522450979089	0.29365880632871166	-0.0119	1.0437053230712048	0.9962276232102343	0.0301	0.9902519303710919	0.5748461457352446	0.129	0.914336547306061	0.1311333515964024	0.023	0.9066013427459736	0.10405605178674639	0.2179	0.8479984699986468	0.09420014202342351	0.1804	0.9012334625723013	0.06169984831534789	-0.0119	1.267017269277478	1.5221050047589568	0.0008	1.3501090102945603	1.6975283170983784	0.0655	1.326868630330659	1.5670917549722114	0.1076	1.4091738499376272	1.450968747609457	-0.01275	1.485606268376832	1.1688021402394881	0.0702	1.5877935572942783	0.9115326855776708	0.1076	1.084723874721099	1.486890425816812	-0.01275	0.965650231011545	1.2037103441373311	0.0702	0.9711968440679001	1.0139970653919452	0.1076
42	1.404320987654321	1.1426727726854953	0.9915938795068663	0.0301	1.2511464234050644	0.9694041233820837	0.0301	1.2534004042540305	0.6665220982474221	0.129	1.2258156273824194	0.41121260475938193	0.023	1.1907009326235174	0.28576781008464136	0.2179	1.2547291434178658	0.28936575882033067	0.1804	1.2082200124584113	0.3568287580748322	-0.0119	1.0455219947185843	0.9973403453613092	0.0301	0.9905622807347241	0.5763482642124249	0.129	0.9142723484692505	0.1325229179616806	0.023	0.9095155133825428	0.10108605734215759	0.2179	0.8501776691899181	0.09430708638310153	0.1804	0.901429510347872	0.06455887705583337	-0.0119	1.2736875091082018	1.519429851016179	0.0008	1.3624181470867103	1.6900156554377097	0.0655	1.3346771115063898	1.5643918265601169	0.1076	1.4131666788366952	1.4474239302833185	-0.01275	1.486415153348332	1.1673002968768396	0.0702	1.5887930938614407	0.9122127572561238	0.1076	1.0927992193051341	1.4858914924144304	-0.01275	0.9723278492789309	1.207971864237005	0.0702	0.9698803593800961	1.0191177401973668	0.1076
43	1.4377572016460904	1.1453657559837402	0.9918702492695193	0.0301	1.2500792445280173	0.9658608173541219	0.0301	1.2499854191713466	0.6671007588235861	0.129	1.2402156153958221	0.5101121918180432	0.023	1.2274064621213259	0.47081992859733773	0.2179	1.2805337564263521	0.45667058293719426	0.1804	1.218015910497458	0.44908871532803585	-0.0119	1.0488109780828647	0.9949439068688304	0.0301	0.9921124251875629	0.5760741989934189	0.129	0.9142403812475774	0.1345003689230814	0.023	0.9095960561520199	0.09692338877949874	0.2179	0.8498433594536553	0.09169584309695039	0.1804	0.9015036826120173	0.06715595293426861	-0.0119	1.2802715376933453	1.5167115669754159	0.0008	1.3713636335856851	1.6841246704248418	0.0655	1.3416770535836826	1.5611197684769924	0.1076	1.4185567886074733	1.4422832220278707	-0.01275	1.4882686127071227	1.1650206097786764	0.0702	1.5894732931034916	0.9108994974161144	0.1076	1.0996862617731016	1.4840731579301347	-0.01275	0.9780979552253498	1.211984689016768	0.0702	0.9699354052462223	1.022120995108942	0.1076
44	1.47119341563786	1.1498403148615859	0.9874763114373785	0.0301	1.2504149409462069	0.9585899195314762	0.0301	1.2448037620480645	0.6706864094178536	0.129	1.2484333104923124	0.5835609671921245	0.023	1.2513042199345814	0.5944349845676461	0.2179	1.296066025848495	0.5712913822129857	0.1804	1.2264894426383823	0.5253756686474107	-0.0119	1.0528499915874818	0.9890086104940684	0.0301	0.9945853065659165	0.5733802106002646	0.129	0.9144079584744413	0.13518310262722166	0.023	0.9094496670780869	0.09238580708656974	0.2179	0.8495980206792787	0.0874909529818254	0.1804	0.9015015332028677	0.06764278852267629	-0.0119	1.288089650899471	1.513530501040862	0.0008	1.3763713485862403	1.6809990364540626	0.0655	1.3466101008359863	1.5589635480176207	0.1076	1.4254080378088165	1.4355933732515316	-0.01275	1.4918586418225528	1.1613650223532659	0.0702	1.5892570755684527	0.9074783938433189	0.1076	1.1051730549857308	1.4814064173463943	-0.01275	0.9823422464896913	1.2161981703082556	0.0702	0.9705154132824153	1.02312433706243	0.1076
45	1.5046296296296298	1.1540330763037465	0.9790827136148645	0.0301	1.2527364802428713	0.9505259589408204	0.0301	1.2390860005253925	0.6699201448302403	0.129	1.2508574368481524	0.6122015562990645	0.023	1.2546692556729933	0.6200302945611692	0.2179	1.2965155757030615	0.597435605336626	0.1804	1.2313921172854487	0.5613732001440747	-0.0119	1.0574560015971755	0.9826664825086283	0.0301	0.9968416410075704	0.5689554935305511	0.129	0.915338638534256	0.13408864893250175	0.023	0.9102194344313795	0.0899841657778393	0.2179	0.8504916972352493	0.0850732502453994	0.1804	0.9020517267898189	0.06688049448744214	-0.0119	1.2973456546843642	1.5088496613205078	0.0008	1.3811112857907084	1.679155292768392	0.0655	1.351075766944166	1.5585421362171294	0.1076	1.4331256808598214	1.428014467120078	-0.01275	1.4961328521209034	1.1568275840694742	0.0702	1.5884852341868616	0.9040510063524217	0.1076	1.1101818405436878	1.4779538008836883	-0.01275	0.985783286781646	1.2205925858022955	0.0702	0.9702286908855826	1.0234443565355542	0.1076
46	1.5380658436213992	1.1593696998678715	0.9721803828920812	0.0301	1.2571687621757466	0.9462479581336406	0.0301	1.2347477361776138	0.6578929181277128	0.129	1.252699703089288	0.6140213034439067	0.023	1.250448428930869	0.6020505015380233	0.2179	1.29226295555061	0.5838349346886074	0.1804	1.2341934952657247	0.568139116269248	-0.0119	1.062582455768718	0.9791538785861439	0.0301	0.9992550067669147	0.5648720081360769	0.129	0.9170742516426226	0.13309373486723264	0.023	0.91083539456218	0.08981847204493915	0.2179	0.8508024114443512	0.0850309755395035	0.1804	0.9034205798044977	0.06581850576312402	-0.0119	1.3060356342140325	1.502562494719888	0.0008	1.3888592662756252	1.6770092207414715	0.0655	1.3596443921357078	1.556828216758113	0.1076	1.4401012466089753	1.4202876535571527	-0.01275	1.499933673907656	1.1511744948973308	0.0702	1.588315653223917	0.9021756780211471	0.1076	1.1153811213031588	1.4734230412260987	-0.01275	0.9888956055399981	1.2223058419668922	0.0702	0.9698251975689463	1.0249978903044208	0.1076
47	1.5715020576131686	1.16635116265609	0.9705132414824049	0.0301	1.2629660889113103	0.9461842787805783	0.0301	1.2339366951220452	0.6426357721530148	0.129	1.2543553919320953	0.6084542852711071	0.023	1.2491482513571617	0.5898316576512488	0.2179	1.290135055395374	0.5737756792781303	0.1804	1.2354969688899466	0.5645841733549973	-0.0119	1.0676096634108072	0.9784292340108652	0.0301	1.002971894806243	0.5637551940348662	0.129	0.9189320393993339	0.13480741350739664	0.023	0.9103287682309864	0.0917966159737978	0.2179	0.8494833166784216	0.0872234464917196	0.1804	0.9054549670066292	0.06509454480076571	-0.0119	1.3133450492236776	1.4964780140109522	0.0008	1.3993659917917933	1.6740569751452499	0.0655	1.3730597367346953	1.5524300917016718	0.1076	1.445561404058906	1.412265642014314	-0.01275	1.5031055470905572	1.143292533268526	0.0702	1.5892048944454957	0.9016491445346472	0.1076	1.1213667851861226	1.4690015095047944	-0.01275	0.9921395741962393	1.2217060887092321	0.0702	0.9706842616259458	1.028157523734281	0.1076
48	1.6049382716049383	1.1724142123216235	0.9717676809160791	0.0301	1.2684779583175478	0.9471625907071106	0.0301	1.2378675207483418	0.6409219993497229	0.129	1.2547095321714181	0.6074873480518838	0.023	1.2508470260657658	0.5925387574169719	0.2179	1.2887889362238742	0.5749424489788203	0.1804	1.235711827569023	0.5644482428110514	-0.0119	1.0725697967622307	0.9783118732250234	0.0301	1.0074154863989802	0.566198620196662	0.129	0.9203189242629496	0.13855872506572714	0.023	0.9082653597919346	0.09709765132074442	0.2179	0.847098311971803	0.09180757523301102	0.1804	0.9074770297262507	0.06595424064999991	-0.0119	1.3206491995852983	1.4924575935899933	0.0008	1.4104189131960079	1.6702386361086128	0.0655	1.3866107263461713	1.547906715293952	0.1076	1.4504146581305728	1.403561217807073	-0.01275	1.5060733549847218	1.133842840820626	0.0702	1.5903157982319884	0.901011758132471	0.1076	1.1282970648848127	1.4664308621676865	-0.01275	0.996133053786391	1.2237357137299718	0.0702	0.9723503319770804	1.0317758825994008	0.1076
49	1.638374485596708	1.1766798701326233	0.9723235358906259	0.0301	1.2726446166460637	0.9470914240562532	0.0301	1.245090562153554	0.6547470082908049	0.129	1.2545574754768445	0.6146131446726321	0.023	1.2529903026383067	0.6042840078729841	0.2179	1.2875952940743118	0.5831635443759916	0.1804	1.2364961144916913	0.5740461777155156	-0.0119	1.078136400286205	0.9779878075234738	0.0301	1.0113381437641826	0.5698588043320242	0.129	0.9209068389310533	0.14186328075431928	0.023	0.9064455646190206	0.10247791153229964	0.2179	0.8452734429806411	0.09595405599880501	0.1804	0.9082073591765156	0.06925606054627273	-0.0119	1.3283205778936429	1.4902156060381146	0.0008	1.420911431476765	1.6658634704517754	0.0655	1.3971907847785323	1.5451209588578394	0.1076	1.4558986818950885	1.3953258569792455	-0.01275	1.5091782385742134	1.1256358327471057	0.0702	1.5904455498139205	0.898795846283061	0.1076	1.1359783003162194	1.4653702177534766	-0.01275	1.001469939044748	1.2297205508989124	0.0702	0.9737207167778222	1.0345834541422054	0.1076
